PathFileType	4	(X/Y/Z)	29_2_70_p1_0-359_filt_butterworth.trc
DataRate	CameraRate	NumFrames	NumMarkers	Units	OrigDataRate	OrigDataStartFrame	OrigNumFrames
53.0	53.0	5	27	m	53.0	0	359
Frame#	Time	RHip			RKnee			RAnkle			RBigToe			RSmallToe			RHeel			LHip			LKnee			LAnkle			LBigToe			LSmallToe			LHeel			Neck			Head			Nose			RShoulder			RElbow			RWrist			RThumb			RIndex			RPinky			LShoulder			LElbow			LWrist			LThumb			LIndex			LPinky			
		X1	Y1	Z1	X2	Y2	Z2	X3	Y3	Z3	X4	Y4	Z4	X5	Y5	Z5	X6	Y6	Z6	X7	Y7	Z7	X8	Y8	Z8	X9	Y9	Z9	X10	Y10	Z10	X11	Y11	Z11	X12	Y12	Z12	X13	Y13	Z13	X14	Y14	Z14	X15	Y15	Z15	X16	Y16	Z16	X17	Y17	Z17	X18	Y18	Z18	X19	Y19	Z19	X20	Y20	Z20	X21	Y21	Z21	X22	Y22	Z22	X23	Y23	Z23	X24	Y24	Z24	X25	Y25	Z25	X26	Y26	Z26	X27	Y27	Z27	
0	0.0	0.36156879589837815	0.7263723362805949	0.8137097165843266	0.33556325841195933	0.2930029885513098	0.8042630322195297	0.2937462486755995	-0.11974189979759638	0.7866183423063865	0.2982438430678142	-0.10179100579393191	0.6079555326464392	0.3564930597115323	-0.08504643227434604	0.6113660254693875	0.26363605026708636	-0.19502141006022772	0.8506206729534354	0.1342399093891422	0.7256268471791348	0.8160671848190445	0.11777956979501891	0.3166946573313364	0.7886585221788012	0.09914235508386422	-0.1010646672318511	0.7794766028509692	0.12239316038564661	-0.05696637979617583	0.5792119864776362	0.07178137772280102	-0.07005703076295805	0.6204177021749357	0.11511658919144781	-0.15791829602513152	0.8218253746846186	0.2773904390657459	1.3359312499122884	0.8412929102004053	0.30584397331628055	1.5872707052053494	0.8222216452276948	0.28488051540334564	1.485679335220151	0.7189765252781939	0.4222796665886321	1.2224429355598554	0.8021791775131977	0.45613069922809896	0.9745037986156434	0.7691440067499299	0.33301037729135796	0.8326353146590131	0.6195894048819449	0.23740139852584352	0.7725127641672851	0.5807291526824739	0.233821566835607	0.7485766993394318	0.5938282372314472	0.24374096011826518	0.7058512097661509	0.6208885878545455	0.1240626531692633	1.2377938958577115	0.8275977238901735	0.07718695658441044	0.998667320843706	0.7326010650365595	0.2135772300100375	0.8779511944053047	0.5620250184117961	0.29124076916508057	0.8015742630898756	0.5469922982357786	0.3010762966663252	0.7845210821882069	0.5457613267683927	0.25968482485923994	0.7368300931408557	0.612416150410478	
1	0.0188679245283018	0.359971647253837	0.7249007976645634	0.8160291496584705	0.3354078753967736	0.2923450182203879	0.8041226858687139	0.2955402488134039	-0.11906237920275593	0.7868520955006505	0.29733677630734145	-0.10197555359436315	0.6097873508654913	0.3554974576194775	-0.08481740243653314	0.6115213815312839	0.26428800492350235	-0.19931617807328172	0.8572806847126944	0.1335791723077428	0.7248552002563726	0.814980034267764	0.1173737677266961	0.31831412140041937	0.7887988780261735	0.099170809815344	-0.10107908687998832	0.7792409181236017	0.12364016423190247	-0.06481042359037854	0.586725879218821	0.06868311344027131	-0.07493000071410803	0.6272400537646731	0.11513848805494392	-0.16030132579882048	0.8265444245963149	0.2771146868242532	1.3359174925015544	0.8411588432434729	0.3051464905825124	1.5888194717365602	0.8219691844537511	0.28352144462996415	1.4859054743107118	0.7184012405732649	0.4213233184307097	1.224782074071539	0.8016704731680426	0.4561203231924469	0.9720848260817125	0.7695852807192716	0.3315595872675824	0.828842452963733	0.623329048672671	0.23538712900161443	0.7685004995254058	0.5878532657474282	0.23206593582390359	0.7429477909614386	0.6038769463863493	0.24483863391115107	0.7038515811198481	0.626785175118024	0.12408969905705886	1.2384981149835672	0.8180614505529085	0.07849573266739056	0.9947481144301973	0.7317699686969112	0.2102791930169637	0.8667829277668543	0.5762304901109679	0.28215423852690347	0.7916613712613401	0.5737681387876172	0.28918336603373657	0.7662766109730003	0.5754647770015427	0.25514624408598485	0.7317793996951938	0.6209507179195213	
2	0.0377358490566037	0.3586553599595237	0.7238406720907143	0.8178901416731406	0.33528419504360457	0.2919557832944377	0.8039923278654252	0.2970597747194554	-0.11846225638437469	0.7870947054194517	0.2972046789926734	-0.10102586582927785	0.6097887602667711	0.354995707632225	-0.08466081674236639	0.6115089243321653	0.26500818137805277	-0.20256070428757572	0.862604539620136	0.13301450074846816	0.7243065960722593	0.8141043176121594	0.11700786337767198	0.3198008402312633	0.7888547374913603	0.09916879480484372	-0.10099044725935888	0.7790772260688423	0.12442521923487677	-0.0697153626226529	0.5913931968753269	0.06673942696003952	-0.07811243156188438	0.6314494444391895	0.11516302634787792	-0.16229982295686118	0.8305134633172996	0.27696627562917514	1.3358858416478026	0.8411146755440142	0.3051152553913023	1.5899207707081604	0.8218028226336977	0.2831518988539724	1.4859841826499536	0.7183254110056669	0.421090366500649	1.2255233319337335	0.8014087198552665	0.45615701239447143	0.9709304507517645	0.7699811233212556	0.3311826165698103	0.8255680704776278	0.6265816341492086	0.235290545754764	0.7647903320977879	0.5953702654001993	0.23171594852532187	0.7402189089450867	0.6113432559062121	0.24533276257568945	0.7045105415568553	0.6312807608279839	0.12393550832353349	1.238350426354108	0.8119991231803125	0.07863315181834692	0.990934760308555	0.7332945166150321	0.20575623201854007	0.8570394744188876	0.5883267423362607	0.27741480023272125	0.7857674672505381	0.5909286742082961	0.2822430151144143	0.7557633872905674	0.5944745050055078	0.251156157493269	0.7267853706716403	0.6271734971638615	
3	0.0566037735849056	0.3575986911692672	0.7231559678687474	0.8193238306510366	0.33518902818731916	0.2918082303055533	0.8038705336173668	0.2983251087584365	-0.1179378783265507	0.7873428852629402	0.29766968672586075	-0.099235201900681	0.6083780041049118	0.35488440429086837	-0.08454389394003574	0.6113899314408515	0.2657831938177848	-0.20485363947906923	0.8667082759784921	0.1325389646022645	0.7239595707921839	0.8134231089560857	0.11667969029575768	0.3211566500303704	0.788835130463987	0.09914157359396192	-0.10081594127605605	0.7789846368731703	0.12481790367520172	-0.07216225230022992	0.5936532441022029	0.0657219586135818	-0.07989419413483782	0.6335773674406576	0.11518983749453893	-0.16394304914828964	0.8337890603925261	0.2769590035053016	1.3358437425768321	0.8411423165797989	0.3055908635268819	1.5906406788660181	0.8217239582905445	0.28355210809618264	1.4859484241334586	0.7186339882688246	0.42141032892801467	1.225084173637528	0.8013605780825459	0.45622644072125507	0.9707604246355369	0.7703294186452363	0.33161476674188883	0.822829801697354	0.6293334748131192	0.23661153094345633	0.7615660901702622	0.6026966876011866	0.2324655423309779	0.739723052572644	0.6165758113162676	0.2453359897417383	0.7071185103114364	0.6344736634660246	0.12366505102923285	1.237544958394968	0.8089120066087194	0.07791836971167007	0.9873918578803593	0.7364193458588739	0.20050416236058444	0.8487905418652744	0.5983162515942686	0.27609413886374917	0.783142227638093	0.6001742839983184	0.2792579299940236	0.751514666989993	0.6046217175775561	0.24773266924737802	0.7221221043782227	0.6312622211916414	
4	0.0754716981132075	0.3567803980368963	0.7228106933083611	0.8203613546148589	0.335119185662784	0.2918753057858281	0.8037558785322416	0.29935653329502976	-0.11748559201338298	0.7875933482312659	0.2985539351089544	-0.0968968212105786	0.6059733256345472	0.3550601421365012	-0.08443385277773172	0.6112256804261615	0.26659965642974554	-0.206293634423722	0.8697079320904942	0.13214563376007799	0.7237926605815359	0.8129194824033981	0.1163870820287643	0.32238338700424196	0.7887490868336797	0.09909440972429708	-0.1005727618361739	0.7789622607230654	0.12488779583350951	-0.07263214803033984	0.5939453255544982	0.06540234873237419	-0.08056515926151976	0.6341553160112504	0.11521855491921608	-0.1652602660221429	0.8364277853669481	0.27710666847742266	1.335798640514442	0.8412236758285965	0.30641391077348296	1.5910452729560007	0.8217339899473002	0.28450230237740703	1.4858311626568101	0.7192119240561629	0.4221127238423713	1.2238820636740104	0.801492708357557	0.45631428205988017	0.9712944997427674	0.7706280507805681	0.3325913393276652	0.8206452811195684	0.6315708841659642	0.23884996672585557	0.7590116020286598	0.609249068310789	0.23400865463198767	0.7407932211263788	0.6199232581417479	0.24496095903915563	0.7109659066178551	0.6364622015137454	0.12334329723470255	1.236275839531781	0.8083013656744631	0.07667054202175051	0.9842840065471907	0.7403890934963882	0.19501879938891473	0.8421058376098844	0.6062014943915854	0.27726393900120255	0.7830353290046286	0.6032053476581878	0.2792307967582297	0.7520637059203619	0.6077376215149558	0.24489388351459723	0.7180636991229674	0.6333946230510034	
